<svg xmlns="http://www.w3.org/2000/svg" xmlns:xlink="http://www.w3.org/1999/xlink" width="40.5" height="32.993" viewBox="0 0 40.5 32.993">
  <defs>
    <linearGradient id="linear-gradient" x1="1.104" y1="-0.261" x2="0.5" y2="0.775" gradientUnits="objectBoundingBox">
      <stop offset="0" stop-color="#fff2cd"/>
      <stop offset="1" stop-color="#e0a80e" stop-opacity="0.988"/>
    </linearGradient>
    <linearGradient id="linear-gradient-2" x1="1.104" y1="-0.261" x2="0.5" y2="0.775" gradientUnits="objectBoundingBox">
      <stop offset="0" stop-color="#fff2cd"/>
      <stop offset="1" stop-color="#ffcf4a" stop-opacity="0.988"/>
    </linearGradient>
  </defs>
  <g id="Group_9890" data-name="Group 9890" transform="translate(-310.007 -430.549)">
    <path id="Union_19" data-name="Union 19" d="M0,13.707a7.286,7.286,0,1,1,7.286,7.286A7.286,7.286,0,0,1,0,13.707Zm23.473-1.493a.737.737,0,0,1-.736-.736v-7.6a.736.736,0,0,1,.736-.736h4.291a.737.737,0,0,1,.736.736v7.6a.736.736,0,0,1-.736.736Zm-7.965-1.659A5.057,5.057,0,0,1,13.4,8.194a5.162,5.162,0,0,1-.289-.864L10.439,5.79a1.063,1.063,0,0,1-.425-1.4,1.048,1.048,0,0,1,1.451-.422L14.97,5.988a.79.79,0,0,0,.789-1.368L12.482,2.727a2.86,2.86,0,0,0-1.546-.386,2.753,2.753,0,0,0-.41.044l-5.673.574a1.108,1.108,0,1,1-.221-2.2s4.38-.47,6.511-.683A13.751,13.751,0,0,1,12.518,0a6.811,6.811,0,0,1,3.389.92l5.251,3.031v6.463a5.3,5.3,0,0,1-2.932.841A5.468,5.468,0,0,1,15.508,10.555Z" transform="translate(316.007 436.549)" fill="#e1a602"/>
    <g id="Group_8204" data-name="Group 8204" transform="translate(316.007 440.941)">
      <circle id="Oval" cx="7.287" cy="7.287" r="7.287" fill="url(#linear-gradient)"/>
      <circle id="Oval-2" data-name="Oval" cx="7.287" cy="7.287" r="7.287" transform="translate(0.911)" fill="url(#linear-gradient-2)"/>
      <text id="Rp" transform="translate(3.643 8.188)" fill="#9e7404" font-size="6" font-family="Helvetica"><tspan x="0" y="0">Rp</tspan></text>
    </g>
    <path id="Path_10304" data-name="Path 10304" d="M5.09.368A.736.736,0,0,0,4.084.1L.368,2.244A.737.737,0,0,0,.1,3.25L3.9,9.829A.737.737,0,0,0,4.9,10.1L8.619,7.952a.736.736,0,0,0,.269-1.006Z" transform="translate(341.979 451.459) rotate(-150)" fill="#4a4b4d"/>
    <path id="Path_10305" data-name="Path 10305" d="M19.394,1.5a1.107,1.107,0,0,0-1.546-.251L13.222,4.583a2.781,2.781,0,0,1-.333.244,2.866,2.866,0,0,1-1.532.439H7.573a.79.79,0,0,1,0-1.58H11.62A1.047,1.047,0,0,0,12.666,2.6a1.064,1.064,0,0,0-1.071-1H8.514a5.121,5.121,0,0,0-.682-.6A5.053,5.053,0,0,0,4.822,0,5.574,5.574,0,0,0,0,2.946l3.232,5.6H9.294a6.8,6.8,0,0,0,3.395-.9,13.6,13.6,0,0,0,1.156-.75c1.739-1.249,5.295-3.845,5.3-3.847A1.107,1.107,0,0,0,19.394,1.5Z" transform="translate(334.703 450.083) rotate(-150)" fill="#97996c"/>
  </g>
</svg>
