<svg id="Group_3834" data-name="Group 3834" xmlns="http://www.w3.org/2000/svg" xmlns:xlink="http://www.w3.org/1999/xlink" width="23.758" height="25.906" viewBox="0 0 23.758 25.906">
  <defs>
    <linearGradient id="linear-gradient" x1="0.5" x2="0.5" y2="1" gradientUnits="objectBoundingBox">
      <stop offset="0" stop-color="#ff001e"/>
      <stop offset="1" stop-color="#80000f"/>
    </linearGradient>
  </defs>
  <path id="Path-107" d="M1.256,0H1.37A.642.642,0,0,1,2.04.513L2.653,5.7,7.027,7.815a.561.561,0,0,1,.339.495v.239a.416.416,0,0,1-.2.345.59.59,0,0,1-.447.074L.495,7.532A.585.585,0,0,1,0,6.94L.584.527A.638.638,0,0,1,1.256,0Z" transform="translate(10.182 9.111)"/>
  <path id="Combined-Shape" d="M7.229,1.9A11.335,11.335,0,0,1,11.879.9c6.561,0,11.879,5.6,11.879,12.5s-5.318,12.5-11.879,12.5S0,20.309,0,13.405a13.1,13.1,0,0,1,.441-3.383l2.178.643a10.627,10.627,0,0,0-.356,2.741A10.138,10.138,0,0,0,8.2,22.755a9.27,9.27,0,0,0,10.48-2.194A10.509,10.509,0,0,0,20.763,9.533a9.625,9.625,0,0,0-8.884-6.247,9.19,9.19,0,0,0-3.112.54l1.346,1.691a.62.62,0,0,1,.086.618.568.568,0,0,1-.486.358l-5.506.329A.553.553,0,0,1,3.74,6.61a.619.619,0,0,1-.117-.52L4.9.457a.581.581,0,0,1,.42-.441.549.549,0,0,1,.563.2Z" transform="translate(0 0)" fill="url(#linear-gradient)"/>
</svg>
