<svg width="23" height="23" viewBox="0 0 23 23" fill="none" xmlns="http://www.w3.org/2000/svg">
<g clip-path="url(#clip0)">
<path d="M22.6139 10.219L12.2981 0.326395C12.0814 0.116882 11.7979 0.000610352 11.5036 0.000610352C11.2094 0.000610352 10.9258 0.116882 10.7092 0.326395L0.386521 10.219C0.210475 10.3876 0.0870305 10.6082 0.0324187 10.852C-0.022193 11.0957 -0.00541544 11.3511 0.0805456 11.5847C0.166507 11.8182 0.317627 12.0189 0.514036 12.1603C0.710446 12.3018 0.94295 12.3774 1.18098 12.3773H2.82874V22.289C2.82874 22.4784 2.90028 22.6601 3.02762 22.7941C3.15496 22.9281 3.32767 23.0033 3.50776 23.0033H9.16628C9.34637 23.0033 9.51908 22.9281 9.64642 22.7941C9.77376 22.6601 9.8453 22.4784 9.8453 22.289V16.2707H13.1695V22.289C13.1695 22.4784 13.241 22.6601 13.3684 22.7941C13.4957 22.9281 13.6684 23.0033 13.8485 23.0033H19.507C19.6871 23.0033 19.8598 22.9281 19.9872 22.7941C20.1145 22.6601 20.1861 22.4784 20.1861 22.289V12.3773H21.8346C22.0726 12.3774 22.3051 12.3018 22.5015 12.1603C22.6979 12.0189 22.849 11.8182 22.935 11.5847C23.021 11.3511 23.0377 11.0957 22.9831 10.852C22.9285 10.6082 22.8051 10.3876 22.629 10.219H22.6139Z" fill="#FF0000"/>
<path d="M19.9949 1.42004H15.4523L20.671 6.4128V2.13125C20.6702 1.94289 20.5987 1.76247 20.4721 1.62928C20.3455 1.49608 20.174 1.42088 19.9949 1.42004Z" fill="#FF0000"/>
</g>
<defs>
<clipPath id="clip0">
<rect width="23" height="23" fill="white"/>
</clipPath>
</defs>
</svg>
