<svg width="104" height="112" viewBox="0 0 104 112" fill="none" xmlns="http://www.w3.org/2000/svg">
<path d="M28.5781 99.2648L0.420898 111.208V70.381C0.420898 62.9829 3.38745 55.8879 8.66794 50.6566C13.9484 45.4254 21.1103 42.4866 28.5781 42.4866V99.2648Z" fill="url(#paint0_linear)"/>
<path style="mix-blend-mode:overlay" opacity="0.34" d="M28.5788 42.4866C23.8739 42.485 19.2438 43.6527 15.1123 45.8827C10.9809 48.1127 7.48008 51.3337 4.93042 55.251C10.0222 50.9231 16.5117 48.5473 23.2207 48.5549V101.54L28.5795 99.267V42.4866H28.5788Z" fill="url(#paint1_linear)"/>
<path d="M103.893 55.998C103.893 28.5832 87.0498 7.86734 61.5668 1.81665C56.3617 0.594808 51.0293 -0.0149848 45.68 -0.000100191H0C0.620694 7.69239 4.14332 14.8711 9.86638 20.1063C15.5894 25.3415 23.093 28.2491 30.8827 28.2502C30.9972 28.2502 31.1058 28.2428 31.2233 28.2421C31.2307 28.4528 31.2426 28.6628 31.2456 28.8749V28.3032H44.2165C45.7252 28.3013 47.2326 28.3957 48.729 28.5861C57.6688 29.3776 66.151 32.8563 73.0396 38.5563C79.9282 44.2564 84.8942 51.9056 87.2724 60.4794C89.6507 69.0532 89.3276 78.1423 86.3466 86.5292C83.3655 94.9161 77.8688 102.2 70.5926 107.406C90.9131 98.9628 103.893 79.9804 103.893 55.998Z" fill="url(#paint2_linear)"/>
<path d="M104 56.0017C104 83.4158 87.1577 104.132 61.6747 110.182C56.4696 111.404 51.1372 112.014 45.7879 111.999H0.107178C0.727872 104.307 4.2505 97.1279 9.97355 91.8927C15.6966 86.6575 23.2002 83.7498 30.9899 83.7488C31.1044 83.7488 31.213 83.7561 31.3312 83.7569C31.3379 83.5462 31.3498 83.3362 31.3528 83.124V83.6965H44.3237C45.8327 83.6984 47.3402 83.6039 48.8369 83.4136C57.7765 82.6217 66.2584 79.1428 73.1467 73.4428C80.035 67.7427 85.0008 60.0935 87.379 51.5199C89.7572 42.9462 89.4343 33.8574 86.4535 25.4706C83.4727 17.0838 77.9763 9.79957 70.7005 4.59338C91.021 13.0369 104 32.02 104 56.0017Z" fill="url(#paint3_linear)"/>
<path d="M72.2436 5.7714C72.0309 5.50618 71.8138 5.24537 71.5951 4.98531C71.2977 4.85491 71.0002 4.71936 70.6968 4.59338C71.224 4.97132 71.7342 5.37062 72.2436 5.7714Z" fill="url(#paint4_linear)"/>
<path style="mix-blend-mode:overlay" d="M84.3586 12.7245C92.2785 22.2657 96.8245 34.7038 96.8245 48.8923C96.8245 76.3071 79.9821 97.023 54.4984 103.073C49.2936 104.295 43.9614 104.905 38.6124 104.89H1.54318C0.781441 107.195 0.299381 109.582 0.107178 112H45.7879C51.1372 112.015 56.4696 111.405 61.6747 110.183C87.1577 104.132 104 83.4165 104 56.0024C104 37.9586 96.652 22.7483 84.3586 12.7245Z" fill="url(#paint5_linear)"/>
<path d="M65.6859 61.0136H58.6056C58.2004 61.0101 57.8104 61.1661 57.5213 61.4474C57.2322 61.7287 57.0677 62.1122 57.064 62.5136V69.4012C57.0518 70.7053 56.5172 71.9512 55.5778 72.8648C54.6384 73.7785 53.3711 74.285 52.0547 74.2731V74.2731C50.7381 74.2852 49.4705 73.7788 48.5308 72.8651C47.5911 71.9515 47.0563 70.7055 47.0439 69.4012V62.5136C47.0422 62.3148 47.0009 62.1184 46.9225 61.9355C46.8441 61.7525 46.7301 61.5867 46.5871 61.4474C46.444 61.3081 46.2746 61.1981 46.0886 61.1237C45.9026 61.0492 45.7036 61.0118 45.503 61.0136H38.4212C37.1046 61.0254 35.8372 60.5186 34.8978 59.6046C33.9583 58.6907 33.4238 57.4445 33.4119 56.1402V56.1402C33.4238 54.8359 33.9583 53.5897 34.8978 52.6758C35.8372 51.7618 37.1046 51.255 38.4212 51.2668H45.503C45.7036 51.2686 45.9026 51.2313 46.0885 51.1569C46.2745 51.0826 46.4439 50.9726 46.587 50.8334C46.7301 50.6942 46.8441 50.5284 46.9225 50.3455C47.0009 50.1626 47.0422 49.9662 47.0439 49.7675V42.88C47.0561 41.5754 47.5908 40.3291 48.5305 39.4152C49.4702 38.5013 50.7379 37.9946 52.0547 38.0066V38.0066C53.3713 37.9948 54.6387 38.5016 55.5781 39.4155C56.5175 40.3294 57.052 41.5756 57.064 42.88V49.7675C57.0658 49.9663 57.1071 50.1627 57.1856 50.3456C57.2641 50.5285 57.3782 50.6942 57.5213 50.8335C57.6645 50.9727 57.8339 51.0826 58.0199 51.1569C58.206 51.2313 58.405 51.2686 58.6056 51.2668H65.6859C67.0027 51.2548 68.2704 51.7615 69.2101 52.6754C70.1498 53.5894 70.6846 54.8357 70.6967 56.1402V56.1402C70.6846 57.4447 70.1498 58.691 69.2101 59.6049C68.2704 60.5188 67.0027 61.0256 65.6859 61.0136V61.0136Z" fill="url(#paint6_linear)"/>
<defs>
<linearGradient id="paint0_linear" x1="10.473" y1="26.1996" x2="43.3233" y2="95.6544" gradientUnits="userSpaceOnUse">
<stop stop-color="white"/>
<stop offset="0.633" stop-color="#AA9596"/>
<stop offset="0.843" stop-color="#897274"/>
<stop offset="1" stop-color="#6C5455"/>
</linearGradient>
<linearGradient id="paint1_linear" x1="14.0117" y1="84.9459" x2="57.248" y2="65.4733" gradientUnits="userSpaceOnUse">
<stop offset="0.022" stop-color="white" stop-opacity="0"/>
<stop offset="1" stop-color="white"/>
</linearGradient>
<linearGradient id="paint2_linear" x1="68.9849" y1="54.3474" x2="14.369" y2="20.8685" gradientUnits="userSpaceOnUse">
<stop stop-color="#442326"/>
<stop offset="0.097" stop-color="#915D62"/>
<stop offset="0.236" stop-color="#C9A5A6"/>
<stop offset="1" stop-color="white"/>
</linearGradient>
<linearGradient id="paint3_linear" x1="-6.95754" y1="140.999" x2="138.468" y2="-1.95531" gradientUnits="userSpaceOnUse">
<stop stop-color="#9B7778"/>
<stop offset="0.124" stop-color="#C5ACAC"/>
<stop offset="0.746" stop-color="white"/>
<stop offset="1" stop-color="white"/>
</linearGradient>
<linearGradient id="paint4_linear" x1="71.3588" y1="5.30019" x2="71.5979" y2="4.86649" gradientUnits="userSpaceOnUse">
<stop offset="0.167" stop-color="#7F2B86"/>
<stop offset="0.993" stop-color="#9E4391"/>
</linearGradient>
<linearGradient id="paint5_linear" x1="46.1317" y1="102.47" x2="80.312" y2="12.9439" gradientUnits="userSpaceOnUse">
<stop offset="0.022" stop-color="white" stop-opacity="0"/>
<stop offset="1" stop-color="white"/>
</linearGradient>
<linearGradient id="paint6_linear" x1="68.9071" y1="45.6224" x2="13.4527" y2="82.1968" gradientUnits="userSpaceOnUse">
<stop stop-color="white"/>
<stop offset="0.158" stop-color="#CEB5B6"/>
<stop offset="0.424" stop-color="#AF9092"/>
<stop offset="0.764" stop-color="#866265"/>
<stop offset="1" stop-color="#4E2E30"/>
</linearGradient>
</defs>
</svg>
