<svg id="icons_Q2" data-name="icons Q2" xmlns="http://www.w3.org/2000/svg" width="27.591" height="27.591" viewBox="0 0 27.591 27.591">
  <path id="Path_12252" data-name="Path 12252" d="M27.083,15.8A11.287,11.287,0,1,1,15.8,4.508,11.287,11.287,0,0,1,27.083,15.8m2.508,0a13.733,13.733,0,1,0-4.022,9.773A13.8,13.8,0,0,0,29.591,15.8Z" transform="translate(-2 -2)" fill="#fff"/>
  <path id="Path_12253" data-name="Path 12253" d="M20,20.271l4.139,4.139a1.191,1.191,0,0,1-.125,1.881,1.317,1.317,0,0,1-1.693-.125L17.37,21.149a1.191,1.191,0,0,1,0-1.756l4.954-5.017a1.317,1.317,0,0,1,1.693-.125,1.191,1.191,0,0,1,.125,1.881Z" transform="translate(-7.588 -6.476)" fill="#fff"/>
</svg>
