<svg id="Health_Icons" data-name="Health Icons" xmlns="http://www.w3.org/2000/svg" width="27.991" height="25.491" viewBox="0 0 27.991 25.491">
  <g id="Group_8951" data-name="Group 8951">
    <path id="Path_12264" data-name="Path 12264" d="M29.943,11.9v-.191L26.757,4.765A1.274,1.274,0,0,0,25.61,4H6.492a1.274,1.274,0,0,0-1.147.765L2.223,11.711V11.9a3.823,3.823,0,0,0,.637,3.314A4.4,4.4,0,0,0,4.644,16.49V27.578A1.848,1.848,0,0,0,6.556,29.49H25.61a1.848,1.848,0,0,0,1.912-1.912V16.49a4.4,4.4,0,0,0,1.784-1.274,3.823,3.823,0,0,0,.637-3.314Zm-25.362.765,2.74-6.118H24.781l2.74,6.118a1.211,1.211,0,0,1-.255.956,1.338,1.338,0,0,1-1.147.574h-.574a1.4,1.4,0,0,1-1.466-1.338,1.274,1.274,0,1,0-2.549,0,1.338,1.338,0,0,1-1.4,1.338h-1.4a1.338,1.338,0,0,1-1.4-1.338,1.274,1.274,0,1,0-2.549,0,1.338,1.338,0,0,1-1.4,1.338h-1.4a1.338,1.338,0,0,1-1.4-1.338,1.274,1.274,0,1,0-2.549,0A1.4,1.4,0,0,1,6.556,14.2H5.983a1.338,1.338,0,0,1-1.147-.574A1.211,1.211,0,0,1,4.581,12.667Zm18.48,14.274V18.657H18.6v8.284H7.13V16.681A3.76,3.76,0,0,0,9.3,15.725a4.015,4.015,0,0,0,2.676,1.02h1.4a4.015,4.015,0,0,0,2.676-1.02,4.015,4.015,0,0,0,2.676,1.02h1.4a4.015,4.015,0,0,0,2.676-1.02,3.76,3.76,0,0,0,2.167.956v10.26Z" transform="translate(-2.087 -4)" fill="#ee4b4b"/>
    <rect id="Rectangle_20689" data-name="Rectangle 20689" width="7" height="7" transform="translate(6.67 14.451)" fill="#ee4b4b"/>
  </g>
</svg>
