<svg xmlns="http://www.w3.org/2000/svg" xmlns:xlink="http://www.w3.org/1999/xlink" width="24.289" height="15.788" viewBox="0 0 24.289 15.788">
  <defs>
    <linearGradient id="linear-gradient" x1="0.402" y1="0.397" x2="0.436" y2="1.438" gradientUnits="objectBoundingBox">
      <stop offset="0" stop-color="#e02020"/>
      <stop offset="1" stop-color="#701010"/>
    </linearGradient>
  </defs>
  <path id="Main" d="M23.074,15.788H1.214A1.215,1.215,0,0,1,0,14.574V1.214A1.215,1.215,0,0,1,1.214,0h21.86a1.216,1.216,0,0,1,1.215,1.214v13.36A1.216,1.216,0,0,1,23.074,15.788ZM11.977,4.911l2.279,6.019h1.453L18.03,4.911H16.423L15.038,9.179H15L13.609,4.911Zm-5.862,0V6.152h1.7V10.93H9.269V6.152h1.7V4.911Z" fill="url(#linear-gradient)"/>
</svg>
