<svg id="Notification_button" xmlns="http://www.w3.org/2000/svg" width="20.874" height="22.748" viewBox="0 0 20.874 22.748">
  <path id="Vector_9" d="M259.076,983.855a3.562,3.562,0,0,0,3.486-2.844H255.59a3.564,3.564,0,0,0,3.486,2.844Z" transform="translate(-249.588 -961.106)" fill="#b0b0b0"/>
  <path id="Vector_10" d="M265.141,970.716h-.011a6.646,6.646,0,0,1-6.642-6.635,6.57,6.57,0,0,1,.635-2.812c-.209-.019-.42-.032-.635-.032a6.638,6.638,0,0,0-6.641,6.635v2.642a6.351,6.351,0,0,1-2.266,4.865,1.659,1.659,0,0,0-.522,1.7,1.74,1.74,0,0,0,1.706,1.216h15.441a1.738,1.738,0,0,0,1.734-1.314,1.662,1.662,0,0,0-.566-1.623,6.305,6.305,0,0,1-2.234-4.646Z" transform="translate(-249 -959.344)" fill="#fff"/>
  <path id="Vector_11" d="M270.988,963.9a4.744,4.744,0,1,1-4.744-4.739A4.741,4.741,0,0,1,270.988,963.9Z" transform="translate(-250.115 -959.158)" fill="#feba1c"/>
</svg>
