<svg width="126" height="140" viewBox="0 0 126 140" fill="none" xmlns="http://www.w3.org/2000/svg">
<path d="M34.4964 124.029L0.508789 138.952V87.9399C0.508689 83.3628 1.38775 78.8305 3.09575 74.6017C4.80376 70.373 7.30725 66.5307 10.4633 63.2942C13.6194 60.0577 17.3662 57.4904 21.4898 55.7388C25.6134 53.9873 30.0331 53.0858 34.4964 53.0859V53.0859V124.029Z" fill="url(#paint0_linear)"/>
<path style="mix-blend-mode:overlay" opacity="0.34" d="M34.4967 53.0859C28.818 53.0833 23.2294 54.5413 18.2425 57.3266C13.2555 60.1119 9.02947 64.1355 5.95117 69.0291C12.0976 63.6225 19.9306 60.6551 28.0284 60.6655V126.868L34.4967 124.029V53.0859Z" fill="url(#paint1_linear)"/>
<path d="M125.405 69.9684C125.405 35.714 105.074 9.83014 74.3147 2.26999C68.0318 0.743205 61.5952 -0.0187715 55.1383 -0.000155272H0.00390625C0.753008 9.61144 5.00495 18.5811 11.9129 25.1224C18.8209 31.6637 27.8781 35.2967 37.2806 35.2979C37.4194 35.2979 37.5544 35.2886 37.6917 35.2878C37.7008 35.5515 37.7152 35.8136 37.719 36.0788V35.364H53.372C55.1931 35.3614 57.0124 35.4794 58.8187 35.7171C69.609 36.7068 79.8469 41.0539 88.1611 48.1762C96.4753 55.2985 102.469 64.856 105.339 75.5685C108.209 86.2811 107.819 97.6372 104.221 108.116C100.622 118.595 93.9875 127.696 85.2051 134.2C109.737 123.655 125.405 99.9344 125.405 69.9684Z" fill="url(#paint2_linear)"/>
<path d="M125.534 69.9722C125.534 104.226 105.204 130.109 74.4452 137.669C68.1623 139.196 61.7257 139.958 55.2688 139.939H0.129883C0.878984 130.328 5.13093 121.358 12.0389 114.817C18.9469 108.275 28.0041 104.642 37.4066 104.641C37.5454 104.641 37.6804 104.65 37.8184 104.651C37.826 104.388 37.8412 104.125 37.8442 103.86V104.575H53.4972C55.3185 104.577 57.1381 104.46 58.9447 104.222C69.7348 103.232 79.9723 98.8844 88.2862 91.7621C96.6002 84.6397 102.593 75.0824 105.464 64.3701C108.334 53.6577 107.944 42.3018 104.346 31.8231C100.747 21.3444 94.1131 12.2433 85.331 5.73853C109.867 16.2882 125.534 40.0069 125.534 69.9722Z" fill="url(#paint3_linear)"/>
<path d="M87.2021 7.21074C86.945 6.87943 86.6826 6.55357 86.4194 6.22849C86.0577 6.06595 85.7013 5.89562 85.335 5.73853C85.9712 6.2106 86.5871 6.70989 87.2021 7.21074Z" fill="url(#paint4_linear)"/>
<path style="mix-blend-mode:overlay" d="M101.826 15.8977C111.386 27.8193 116.873 43.3595 116.873 61.0883C116.873 95.3426 96.543 121.226 65.783 128.785C59.5004 130.312 53.064 131.074 46.6073 131.055H1.86279C0.943505 133.936 0.361776 136.918 0.129883 139.939H55.2688C61.7257 139.958 68.1623 139.196 74.4452 137.669C105.204 130.109 125.534 104.227 125.534 69.9721C125.534 47.427 116.665 28.422 101.826 15.8977Z" fill="url(#paint5_linear)"/>
<path d="M79.2885 76.2352H70.7415C70.2524 76.2308 69.7816 76.4258 69.4327 76.7773C69.0837 77.1287 68.8851 77.6079 68.8805 78.1095V86.7156C68.8733 87.5225 68.7113 88.3201 68.4035 89.0628C68.0958 89.8054 67.6484 90.4787 67.0869 91.044C66.5254 91.6093 65.8608 92.0557 65.131 92.3576C64.4013 92.6595 63.6207 92.8111 62.8339 92.8036V92.8036C62.0469 92.8113 61.2662 92.6599 60.5362 92.358C59.8063 92.0562 59.1416 91.6099 58.5799 91.0446C58.0183 90.4792 57.5707 89.8059 57.2629 89.0632C56.955 88.3204 56.7929 87.5227 56.7858 86.7156V78.1095C56.7837 77.8611 56.7339 77.6156 56.6393 77.387C56.5447 77.1584 56.407 76.9511 56.2343 76.7771C56.0615 76.603 55.857 76.4656 55.6325 76.3726C55.4079 76.2796 55.1676 76.2329 54.9255 76.2352H46.3747C45.5878 76.2427 44.8072 76.0911 44.0774 75.7892C43.3476 75.4872 42.683 75.0408 42.1215 74.4753C41.56 73.9099 41.1126 73.2366 40.8049 72.4939C40.4972 71.7511 40.3352 70.9534 40.3281 70.1465V70.1465C40.3352 69.3395 40.4972 68.5419 40.8049 67.7991C41.1126 67.0563 41.56 66.383 42.1215 65.8176C42.683 65.2522 43.3476 64.8057 44.0774 64.5038C44.8072 64.2018 45.5878 64.0502 46.3747 64.0577H54.9224C55.1645 64.0601 55.4047 64.0135 55.6292 63.9207C55.8537 63.8278 56.0582 63.6906 56.2309 63.5166C56.4037 63.3427 56.5413 63.1356 56.636 62.9071C56.7307 62.6786 56.7806 62.4333 56.7828 62.185V53.5773C56.7898 52.7702 56.9518 51.9724 57.2596 51.2295C57.5674 50.4867 58.0149 49.8133 58.5766 49.2479C59.1383 48.6824 59.8031 48.236 60.533 47.9341C61.263 47.6323 62.0438 47.4809 62.8308 47.4886C63.6177 47.4811 64.3984 47.6327 65.1282 47.9346C65.858 48.2366 66.5226 48.683 67.0841 49.2484C67.6456 49.8138 68.093 50.4872 68.4007 51.2299C68.7084 51.9727 68.8704 52.7703 68.8774 53.5773V62.1835C68.8797 62.4317 68.9297 62.6771 69.0244 62.9056C69.1192 63.1341 69.2569 63.3412 69.4297 63.5151C69.6025 63.689 69.8071 63.8263 70.0316 63.9192C70.2562 64.012 70.4964 64.0586 70.7385 64.0562H79.2885C80.0755 64.0485 80.8563 64.1999 81.5863 64.5018C82.3163 64.8037 82.9811 65.25 83.5427 65.8155C84.1044 66.3809 84.5519 67.0543 84.8597 67.7971C85.1675 68.54 85.3296 69.3378 85.3366 70.1449V70.1449C85.3298 70.9521 85.1678 71.7501 84.8601 72.4931C84.5524 73.2362 84.1049 73.9097 83.5433 74.4753C82.9816 75.0409 82.3167 75.4875 81.5866 75.7894C80.8566 76.0914 80.0757 76.2429 79.2885 76.2352V76.2352Z" fill="url(#paint6_linear)"/>
<defs>
<linearGradient id="paint0_linear" x1="12.6424" y1="32.7358" x2="54.582" y2="118.398" gradientUnits="userSpaceOnUse">
<stop stop-color="#C2141C"/>
<stop offset="0.158" stop-color="#B8131A"/>
<stop offset="0.424" stop-color="#9D1017"/>
<stop offset="0.764" stop-color="#730C12"/>
<stop offset="1" stop-color="#520A0E"/>
</linearGradient>
<linearGradient id="paint1_linear" x1="16.9126" y1="106.135" x2="69.6943" y2="83.1702" gradientUnits="userSpaceOnUse">
<stop offset="0.022" stop-color="white" stop-opacity="0"/>
<stop offset="1" stop-color="white"/>
</linearGradient>
<linearGradient id="paint2_linear" x1="83.27" y1="67.9052" x2="16.1226" y2="28.1429" gradientUnits="userSpaceOnUse">
<stop offset="0.097" stop-color="#930D19"/>
<stop offset="0.236" stop-color="#E82528"/>
</linearGradient>
<linearGradient id="paint3_linear" x1="-8.39757" y1="176.174" x2="173.092" y2="3.82589" gradientUnits="userSpaceOnUse">
<stop offset="0.167" stop-color="#E7141A"/>
<stop offset="0.993" stop-color="#EB403A"/>
</linearGradient>
<linearGradient id="paint4_linear" x1="86.1341" y1="6.62185" x2="86.4383" y2="6.08878" gradientUnits="userSpaceOnUse">
<stop offset="0.167" stop-color="#7F2B86"/>
<stop offset="0.993" stop-color="#9E4391"/>
</linearGradient>
<linearGradient id="paint5_linear" x1="55.6837" y1="128.031" x2="99.4932" y2="17.1805" gradientUnits="userSpaceOnUse">
<stop offset="0.022" stop-color="white" stop-opacity="0"/>
<stop offset="1" stop-color="white"/>
</linearGradient>
<linearGradient id="paint6_linear" x1="83.1762" y1="57.0046" x2="14.8543" y2="100.538" gradientUnits="userSpaceOnUse">
<stop stop-color="#C2141C"/>
<stop offset="0.158" stop-color="#B8131A"/>
<stop offset="0.424" stop-color="#9D1017"/>
<stop offset="0.764" stop-color="#730C12"/>
<stop offset="1" stop-color="#520A0E"/>
</linearGradient>
</defs>
</svg>
