<svg id="QR_Code" data-name="QR Code" xmlns="http://www.w3.org/2000/svg" width="43.211" height="47.422" viewBox="0 0 43.211 47.422">
  <path id="Path_15139" data-name="Path 15139" d="M270.148,905.33c0-2.59-.038-5.181.013-7.77.037-1.922.678-2.5,2.622-2.5q7.331-.014,14.662,0a6.139,6.139,0,0,1,.877.039c1.127.162,2.044.692,1.983,1.931a1.946,1.946,0,0,1-2.2,1.88c-4.105.017-8.212.056-12.316-.021-1.391-.026-1.967.223-1.914,1.822.133,4,.037,8.014.032,12.021,0,1.56-.8,2.63-1.944,2.613-1.117-.017-1.825-.995-1.827-2.536q0-3.739,0-7.478Z" transform="translate(-270.069 -895.041)"/>
  <path id="Path_15140" data-name="Path 15140" d="M270.142,956.641c0-2.491-.028-4.982.01-7.472.024-1.589.769-2.475,1.908-2.426,1.087.047,1.8,1.042,1.8,2.592.014,4.055.077,8.11-.018,12.163-.033,1.4.444,1.725,1.744,1.7,3.809-.075,7.621-.034,11.432-.035.488,0,1.106-.166,1.438.067.694.486,1.582,1.1,1.76,1.819.243.975-.572,1.695-1.62,1.878a8.639,8.639,0,0,1-1.458.1q-7.034.014-14.068.011c-2.361,0-3.017-.657-3.033-3.069-.016-2.442,0-4.885,0-7.327Z" transform="translate(-270.032 -919.617)"/>
  <path id="Path_15141" data-name="Path 15141" d="M335.493,956.785c0,2.493.014,4.985,0,7.477-.015,2.114-.619,2.752-2.689,2.765q-7.4.048-14.808.036c-1.716,0-2.762-.786-2.725-1.983.036-1.153,1.042-1.876,2.669-1.879,4.057-.007,8.114-.05,12.169.031,1.319.026,1.652-.409,1.625-1.677-.082-3.908-.04-7.818-.044-11.728a7.584,7.584,0,0,1,.031-1.171,1.89,1.89,0,0,1,1.919-1.848,1.738,1.738,0,0,1,1.778,1.915q.006,4.031,0,8.063Z" transform="translate(-292.287 -919.64)"/>
  <path id="Path_15142" data-name="Path 15142" d="M335.484,905.339c0,2.394.009,4.789,0,7.183-.01,1.84-.667,2.828-1.837,2.82-1.2-.008-1.929-1.011-1.934-2.768-.012-4.055-.029-8.111.028-12.166.016-1.115-.271-1.545-1.467-1.522-3.859.074-7.72.037-11.58.04a10.62,10.62,0,0,1-1.464-.034,1.94,1.94,0,0,1-1.913-1.865,1.823,1.823,0,0,1,1.835-1.913c1.21-.121,2.439-.063,3.66-.065q5.716-.007,11.432,0c2.709,0,3.254.547,3.256,3.256q0,3.518,0,7.036Z" transform="translate(-292.304 -895.036)"/>
  <path id="Path_15143" data-name="Path 15143" d="M283.133,913.98c0-1.27,0-2.54,0-3.81,0-1.307.6-2.01,1.947-2.006,2.638.007,5.275,0,7.913.019a1.818,1.818,0,0,1,2.017,2c.03,2.589.04,5.178,0,7.766-.024,1.447-.736,2.1-2.217,2.119q-3.663.037-7.327,0c-1.688-.014-2.3-.624-2.331-2.279-.022-1.27,0-2.54,0-3.81Zm6.026-2.11c-2.337,0-2.337,0-2.34,1.94,0,2.556,0,2.556,2.347,2.559,2.136,0,2.156-.017,2.161-2.058C291.332,911.871,291.332,911.871,289.159,911.87Z" transform="translate(-276.083 -900.969)"/>
  <path id="Path_15144" data-name="Path 15144" d="M289.1,958.6c-1.367,0-2.735,0-4.1,0a1.62,1.62,0,0,1-1.842-1.782c-.013-2.736-.026-5.471,0-8.206a1.767,1.767,0,0,1,1.967-1.885c2.638-.035,5.276-.044,7.913.006a1.859,1.859,0,0,1,1.988,2.052c.018,2.589.033,5.178-.006,7.766-.02,1.386-.7,2.013-2.1,2.045C291.637,958.626,290.367,958.6,289.1,958.6ZM289,954.916c2.329,0,2.329,0,2.332-2.425,0-2.073,0-2.073-2.445-2.073-2.062,0-2.062,0-2.064,1.957C286.823,954.913,286.823,954.913,289,954.916Z" transform="translate(-276.091 -918.385)"/>
  <path id="Path_15145" data-name="Path 15145" d="M327.121,914.065c0,1.318-.014,2.636,0,3.955a1.806,1.806,0,0,1-1.973,2.031c-2.636.054-5.274.061-7.908,0a1.887,1.887,0,0,1-2-2.059c-.02-2.588-.034-5.176.005-7.763a1.855,1.855,0,0,1,2.108-2.049c2.587-.028,5.176-.03,7.763.008,1.5.022,1.971.542,2,2.073.027,1.268.006,2.538.006,3.807Zm-3.678.052c.005-2.246.005-2.246-2.028-2.25-2.472-.005-2.472-.005-2.476,2.292,0,2.2,0,2.2,1.989,2.2C323.438,916.362,323.438,916.362,323.443,914.117Z" transform="translate(-290.931 -900.966)"/>
  <path id="Path_15146" data-name="Path 15146" d="M305.017,932.941c-1.268,0-2.537,0-3.8,0a1.722,1.722,0,0,1-1.96-1.709c-.057-1.229.688-1.848,1.9-1.933,2.18-.155,2.179-.16,2.181-2.421,0-1.269-.021-2.537.012-3.8.03-1.183.573-2.006,1.849-1.971,1.25.035,1.786.835,1.786,2.038,0,1.512.056,3.026-.013,4.535-.052,1.154.272,1.794,1.542,1.622a2.441,2.441,0,0,1,.439,0c1.356.066,2.212.787,2.122,1.887-.1,1.249-.924,1.747-2.1,1.755C307.65,932.947,306.333,932.941,305.017,932.941Z" transform="translate(-283.535 -906.811)"/>
  <path id="Path_15147" data-name="Path 15147" d="M328.31,954.85c0,1.023.013,2.047,0,3.071a1.648,1.648,0,0,1-1.784,1.853q-3.07.032-6.141,0a1.705,1.705,0,0,1-1.859-1.819c-.007-1.06.77-1.62,1.76-1.835a4.332,4.332,0,0,1,.875-.02c3.465-.023,3.465-.023,3.481-3.407,0-.195-.007-.39,0-.585.069-1.247.923-2.257,1.925-2.133a1.811,1.811,0,0,1,1.748,2.094C328.278,953,328.31,953.924,328.31,954.85Z" transform="translate(-292.187 -919.619)"/>
  <path id="Path_15148" data-name="Path 15148" d="M305.624,950.587c0-1.607.006-3.214,0-4.82a1.914,1.914,0,0,1,1.81-2.215c1.032-.1,1.818.842,1.828,2.17q.034,4.82,0,9.641c-.01,1.37-.721,2.142-1.866,2.1-1.3-.052-1.746-.9-1.764-2.052C305.606,953.8,305.624,952.194,305.624,950.587Z" transform="translate(-285.823 -917.188)"/>
  <path id="Path_15149" data-name="Path 15149" d="M315.251,947.5c-.014-3.891.083-3.988,4-3.987.632,0,1.267-.021,1.9.011a1.734,1.734,0,0,1,1.838,1.841c.031,1.224-.762,1.7-1.861,1.79a5.194,5.194,0,0,1-.876.007c-1.013-.085-1.433.389-1.36,1.379a5.329,5.329,0,0,1-.013,1.021,1.7,1.7,0,0,1-1.816,1.7,1.685,1.685,0,0,1-1.792-1.718A18.553,18.553,0,0,1,315.251,947.5Z" transform="translate(-290.464 -916.532)"/>
  <path id="Path_15150" data-name="Path 15150" d="M287.024,937.516a18.131,18.131,0,0,1-2.047-.016c-1.077-.124-1.847-.632-1.806-1.868a1.674,1.674,0,0,1,1.787-1.725c1.362-.073,2.732-.052,4.1-.008a1.724,1.724,0,0,1,1.828,1.718,1.758,1.758,0,0,1-1.812,1.89C288.394,937.57,287.707,937.518,287.024,937.516Z" transform="translate(-275.97 -911.987)"/>
  <path id="Path_15151" data-name="Path 15151" d="M327.731,937.523c-.341,0-.686.028-1.024-.006a1.794,1.794,0,0,1-1.76-1.809,1.73,1.73,0,0,1,1.744-1.8,13.713,13.713,0,0,1,1.9-.016c1.162.041,2.01.511,2,1.8-.008,1.26-.78,1.809-1.984,1.83C328.317,937.528,328.024,937.524,327.731,937.523Z" transform="translate(-294.611 -911.989)"/>
  <path id="Path_15152" data-name="Path 15152" d="M305.575,911.053c.024-.486-.139-1.133.111-1.424.484-.561,1.217-1.285,1.818-1.26s1.356.794,1.658,1.423a5.018,5.018,0,0,1,.072,2.163,1.767,1.767,0,0,1-1.751,1.953,1.8,1.8,0,0,1-1.883-1.978c-.008-.292,0-.584,0-.877Z" transform="translate(-285.798 -900.897)"/>
</svg>
