<svg xmlns="http://www.w3.org/2000/svg" width="28.098" height="28.098" viewBox="0 0 28.098 28.098">
  <path id="Icon_metro-qrcode" data-name="Icon metro-qrcode" d="M11.351,3.684H4.327v7.025h7.025Zm1.756-1.756V12.465H2.571V1.928ZM6.083,5.44H9.6V8.953H6.083Zm22.83-1.756H21.888v7.025h7.025V3.684Zm1.756-1.756V12.465H20.132V1.928H30.669ZM23.644,5.44h3.512V8.953H23.644ZM11.351,21.245H4.327V28.27h7.025Zm1.756-1.756V30.026H2.571V19.489ZM6.083,23H9.6v3.512H6.083ZM14.864,1.928H16.62V3.684H14.864ZM16.62,3.684h1.756V5.44H16.62ZM14.864,5.44H16.62V7.2H14.864ZM16.62,7.2h1.756V8.953H16.62ZM14.864,8.953H16.62v1.756H14.864Zm1.756,1.756h1.756v1.756H16.62Zm-1.756,1.756H16.62v1.756H14.864Zm0,3.512H16.62v1.756H14.864Zm1.756,1.756h1.756v1.756H16.62Zm-1.756,1.756H16.62v1.756H14.864Zm1.756,1.756h1.756V23H16.62ZM14.864,23H16.62v1.756H14.864Zm1.756,1.756h1.756v1.756H16.62Zm-1.756,1.756H16.62V28.27H14.864ZM16.62,28.27h1.756v1.756H16.62ZM28.913,15.977h1.756v1.756H28.913Zm-24.586,0H6.083v1.756H4.327Zm1.756-1.756H7.839v1.756H6.083Zm-3.512,0H4.327v1.756H2.571Zm7.025,0h1.756v1.756H9.6Zm1.756,1.756h1.756v1.756H11.351Zm1.756-1.756h1.756v1.756H13.107Zm5.268,1.756h1.756v1.756H18.376Zm1.756-1.756h1.756v1.756H20.132Zm1.756,1.756h1.756v1.756H21.888Zm1.756-1.756H25.4v1.756H23.644ZM25.4,15.977h1.756v1.756H25.4Zm1.756-1.756h1.756v1.756H27.157Zm1.756,5.268h1.756v1.756H28.913Zm-10.537,0h1.756v1.756H18.376Zm1.756-1.756h1.756v1.756H20.132Zm1.756,1.756h1.756v1.756H21.888Zm3.512,0h1.756v1.756H25.4Zm1.756-1.756h1.756v1.756H27.157ZM28.913,23h1.756v1.756H28.913ZM18.376,23h1.756v1.756H18.376Zm1.756-1.756h1.756V23H20.132Zm3.512,0H25.4V23H23.644ZM25.4,23h1.756v1.756H25.4Zm1.756-1.756h1.756V23H27.157Zm1.756,5.268h1.756V28.27H28.913Zm-8.781-1.756h1.756v1.756H20.132Zm1.756,1.756h1.756V28.27H21.888Zm1.756-1.756H25.4v1.756H23.644ZM25.4,26.514h1.756V28.27H25.4ZM20.132,28.27h1.756v1.756H20.132Zm3.512,0H25.4v1.756H23.644Zm3.512,0h1.756v1.756H27.157Z" transform="translate(-2.571 -1.928)"/>
</svg>
