<svg xmlns="http://www.w3.org/2000/svg" xmlns:xlink="http://www.w3.org/1999/xlink" width="42" height="40.028" viewBox="0 0 42 40.028">
  <defs>
    <clipPath id="clip-path">
      <path id="Clip_4" data-name="Clip 4" d="M0,0H20.949V17.306H0Z" fill="none"/>
    </clipPath>
  </defs>
  <g id="Group_3805" data-name="Group 3805" transform="translate(9.526 6.677)">
    <g id="Group_3804" data-name="Group 3804" transform="translate(0 0)">
      <g id="Group_3803" data-name="Group 3803" transform="translate(0 0)">
        <path id="Union_10" data-name="Union 10" d="M2.3,21H0V3.652H4.379l1.759-.435L19,.036A1.192,1.192,0,0,1,20.444.8l.746,2.548.087.3H23V21H2.3Z" transform="translate(-0.026 2.851)" fill="#f09898" stroke="rgba(0,0,0,0)" stroke-miterlimit="10" stroke-width="1"/>
        <g id="icon">
          <path id="Fill_1" data-name="Fill 1" d="M20.031,6.347a4.167,4.167,0,0,0-.484-.027A5.438,5.438,0,0,0,15.268,8.41l-12.539,3.4a1.062,1.062,0,0,1-1.3-.765L.035,5.831A1.088,1.088,0,0,1,.792,4.508l4.8-1.3L17.311.036A1.073,1.073,0,0,1,18.622.8L19.3,3.343l.7,2.666a.888.888,0,0,1,.026.338" fill="#eaaaaa"/>
          <g id="Group_6" data-name="Group 6" transform="translate(0 3.643)">
            <path id="Clip_4-2" data-name="Clip 4" d="M0,0H20.949V17.306H0Z" fill="none"/>
          </g>
          <path id="Fill_3" data-name="Fill 3" d="M14.452,8.653a5.448,5.448,0,0,0,5.358,5.534,4.849,4.849,0,0,0,1.139-.134V15.14a2.135,2.135,0,0,1-2.1,2.166H2.1A2.134,2.134,0,0,1,0,15.14V2.166A2.133,2.133,0,0,1,2.1,0H18.852a1.928,1.928,0,0,1,.716.134,2.163,2.163,0,0,1,1.381,2.032V3.252a4.247,4.247,0,0,0-.665-.106,3.992,3.992,0,0,0-.474-.027,5.289,5.289,0,0,0-4.193,2.094A5.615,5.615,0,0,0,14.452,8.653Z" transform="translate(0 3.643)" fill="#e02020"/>
          <g id="Path_6484" data-name="Path 6484" transform="translate(13.983 6.836)" fill="#fff">
            <path d="M 5.465034961700439 10.43007469177246 C 2.727304935455322 10.43007469177246 0.5000049471855164 8.202764511108398 0.5000049471855164 5.465034961700439 C 0.5000049471855164 2.727304935455322 2.727304935455322 0.5000049471855164 5.465034961700439 0.5000049471855164 C 8.202764511108398 0.5000049471855164 10.43007469177246 2.727304935455322 10.43007469177246 5.465034961700439 C 10.43007469177246 8.202764511108398 8.202764511108398 10.43007469177246 5.465034961700439 10.43007469177246 Z" stroke="none"/>
            <path d="M 5.465034961700439 0.999995231628418 C 3.003005027770996 0.999995231628418 0.999995231628418 3.003005027770996 0.999995231628418 5.465034961700439 C 0.999995231628418 7.927064895629883 3.003005027770996 9.930065155029297 5.465034961700439 9.930065155029297 C 7.927064895629883 9.930065155029297 9.930065155029297 7.927064895629883 9.930065155029297 5.465034961700439 C 9.930065155029297 3.003005027770996 7.927064895629883 0.999995231628418 5.465034961700439 0.999995231628418 M 5.465034961700439 -4.76837158203125e-06 C 8.483284950256348 -4.76837158203125e-06 10.9300651550293 2.446784973144531 10.9300651550293 5.465034961700439 C 10.9300651550293 8.483284950256348 8.483284950256348 10.9300651550293 5.465034961700439 10.9300651550293 C 2.446784973144531 10.9300651550293 -4.76837158203125e-06 8.483284950256348 -4.76837158203125e-06 5.465034961700439 C -4.76837158203125e-06 2.446784973144531 2.446784973144531 -4.76837158203125e-06 5.465034961700439 -4.76837158203125e-06 Z" stroke="none" fill="#fff"/>
          </g>
        </g>
      </g>
    </g>
    <path id="Fill_9" data-name="Fill 9" d="M2.433,2.433V.486a.487.487,0,0,1,.974,0V2.433H5.352a.486.486,0,1,1,0,.973H3.406V5.352a.487.487,0,1,1-.974,0V3.406H.487a.486.486,0,1,1,0-.973Z" transform="translate(16.932 9.377)" fill="#45994a" stroke="#45994a" stroke-width="1"/>
  </g>
</svg>
