<svg xmlns="http://www.w3.org/2000/svg" xmlns:xlink="http://www.w3.org/1999/xlink" width="25.503" height="20.949" viewBox="0 0 25.503 20.949">
  <defs>
    <clipPath id="clip-path">
      <path id="Clip_4" data-name="Clip 4" d="M0,0H20.949V17.306H0Z" fill="none"/>
    </clipPath>
    <linearGradient id="linear-gradient" x1="-1.415" y1="0.659" x2="1.159" y2="0.373" gradientUnits="objectBoundingBox">
      <stop offset="0"/>
      <stop offset="1" stop-color="#545454"/>
    </linearGradient>
  </defs>
  <g id="icon" opacity="0.77">
    <path id="Fill_1" data-name="Fill 1" d="M20.031,6.347a4.167,4.167,0,0,0-.484-.027A5.438,5.438,0,0,0,15.268,8.41l-12.539,3.4a1.062,1.062,0,0,1-1.3-.765L.035,5.831A1.088,1.088,0,0,1,.792,4.508l4.8-1.3L17.311.036A1.073,1.073,0,0,1,18.622.8L19.3,3.343l.7,2.666a.888.888,0,0,1,.026.338" fill="red"/>
    <g id="Group_6" data-name="Group 6" transform="translate(0 3.643)">
      <path id="Clip_4-2" data-name="Clip 4" d="M0,0H20.949V17.306H0Z" fill="none"/>
    </g>
    <path id="Fill_3" data-name="Fill 3" d="M14.452,8.653a5.448,5.448,0,0,0,5.358,5.534,4.849,4.849,0,0,0,1.139-.134V15.14a2.135,2.135,0,0,1-2.1,2.166H2.1A2.134,2.134,0,0,1,0,15.14V2.166A2.133,2.133,0,0,1,2.1,0H18.852a1.928,1.928,0,0,1,.716.134,2.163,2.163,0,0,1,1.381,2.032V3.252a4.247,4.247,0,0,0-.665-.106,3.992,3.992,0,0,0-.474-.027,5.289,5.289,0,0,0-4.193,2.094A5.615,5.615,0,0,0,14.452,8.653Z" transform="translate(0 3.643)" fill="url(#linear-gradient)"/>
    <g id="Path_6485" data-name="Path 6485" transform="translate(14.341 6.693)" fill="#fff">
      <path d="M 5.581391334533691 11.02358150482178 C 2.779501438140869 11.02358150482178 0.5000013113021851 8.663151741027832 0.5000013113021851 5.761791706085205 C 0.5000013113021851 2.860431671142578 2.779501438140869 0.5000017285346985 5.581391334533691 0.5000017285346985 C 8.383281707763672 0.5000017285346985 10.66278171539307 2.860431671142578 10.66278171539307 5.761791706085205 C 10.66278171539307 8.663151741027832 8.383281707763672 11.02358150482178 5.581391334533691 11.02358150482178 Z" stroke="none"/>
      <path d="M 5.581391334533691 1.000001907348633 C 3.055201530456543 1.000001907348633 1.000000953674316 3.136131286621094 1.000000953674316 5.761791706085205 C 1.000000953674316 8.387451171875 3.055201530456543 10.52358150482178 5.581391334533691 10.52358150482178 C 8.10758113861084 10.52358150482178 10.16278171539307 8.387451171875 10.16278171539307 5.761791706085205 C 10.16278171539307 3.136131286621094 8.10758113861084 1.000001907348633 5.581391334533691 1.000001907348633 M 5.581391334533691 1.9073486328125e-06 C 8.663911819458008 1.9073486328125e-06 11.16278171539307 2.579641342163086 11.16278171539307 5.761791706085205 C 11.16278171539307 8.943941116333008 8.663911819458008 11.52358150482178 5.581391334533691 11.52358150482178 C 2.498871803283691 11.52358150482178 9.5367431640625e-07 8.943941116333008 9.5367431640625e-07 5.761791706085205 C 9.5367431640625e-07 2.579641342163086 2.498871803283691 1.9073486328125e-06 5.581391334533691 1.9073486328125e-06 Z" stroke="none" fill="#fff"/>
    </g>
    <path id="Fill_6" data-name="Fill 6" d="M.786,2.391H5.514L4.5,1.361A.807.807,0,0,1,4.5.234a.778.778,0,0,1,1.112,0l2.358,2.39a.806.806,0,0,1,0,1.129L5.609,6.142a.778.778,0,0,1-1.112,0,.806.806,0,0,1,0-1.127l1.017-1.03H.786a.8.8,0,0,1,0-1.594" transform="translate(15.484 9.108)" fill="red"/>
  </g>
</svg>
