<svg xmlns="http://www.w3.org/2000/svg" xmlns:xlink="http://www.w3.org/1999/xlink" width="165.528" height="179.938" viewBox="0 0 165.528 179.938">
  <defs>
    <linearGradient id="linear-gradient" x1="0.357" y1="-0.237" x2="0.588" y2="0.955" gradientUnits="objectBoundingBox">
      <stop offset="0" stop-color="#c2141c"/>
      <stop offset="0.158" stop-color="#b8131a"/>
      <stop offset="0.424" stop-color="#9d1017"/>
      <stop offset="0.764" stop-color="#730c12"/>
      <stop offset="1" stop-color="#520a0e"/>
    </linearGradient>
    <linearGradient id="linear-gradient-2" x1="0.384" y1="0.719" x2="1.355" y2="-0.373" gradientUnits="objectBoundingBox">
      <stop offset="0.022" stop-color="#fff" stop-opacity="0"/>
      <stop offset="1" stop-color="#fff"/>
    </linearGradient>
    <linearGradient id="linear-gradient-3" x1="0.664" y1="0.506" x2="0.148" y2="0.179" gradientUnits="objectBoundingBox">
      <stop offset="0.097" stop-color="#930d19"/>
      <stop offset="0.236" stop-color="#e82528"/>
    </linearGradient>
    <linearGradient id="linear-gradient-4" x1="-0.068" y1="1.27" x2="1.286" y2="-0.106" gradientUnits="objectBoundingBox">
      <stop offset="0.167" stop-color="#e7141a"/>
      <stop offset="0.993" stop-color="#eb403a"/>
    </linearGradient>
    <linearGradient id="linear-gradient-5" x1="0.428" y1="0.6" x2="0.656" y2="0.285" gradientUnits="objectBoundingBox">
      <stop offset="0.167" stop-color="#7f2b86"/>
      <stop offset="0.993" stop-color="#9e4391"/>
    </linearGradient>
    <linearGradient id="linear-gradient-6" x1="0.443" y1="0.904" x2="0.799" y2="0.013" xlink:href="#linear-gradient-2"/>
    <linearGradient id="linear-gradient-7" x1="0.952" y1="0.21" x2="-0.56" y2="1.18" xlink:href="#linear-gradient"/>
  </defs>
  <g id="Group_9945" data-name="Group 9945" transform="translate(-412.415 -514.402)">
    <g id="Group_9944" data-name="Group 9944" transform="translate(412.415 514.402)">
      <path id="Path_15132" data-name="Path 15132" d="M457.682,651.594l-44.816,19.188V605.19a44.815,44.815,0,0,1,44.816-44.816h0Z" transform="translate(-412.196 -492.115)" fill="url(#linear-gradient)"/>
      <path id="Path_15133" data-name="Path 15133" d="M455.339,560.374a44.768,44.768,0,0,0-37.64,20.5A44.627,44.627,0,0,1,446.81,570.12v85.125l8.529-3.651v-91.22Z" transform="translate(-409.853 -492.115)" opacity="0.34" fill="url(#linear-gradient-2)" style="mix-blend-mode: overlay;isolation: isolate"/>
      <path id="Path_15134" data-name="Path 15134" d="M577.772,604.369c0-44.045-26.808-77.327-67.367-87.048a108.342,108.342,0,0,0-25.286-2.919h-72.7a49.316,49.316,0,0,0,49.153,45.387c.183,0,.361-.012.542-.013.012.339.031.676.036,1.017v-.919H482.79a55.8,55.8,0,0,1,7.182.454A70.09,70.09,0,0,1,524.765,686.96C557.113,673.4,577.772,642.9,577.772,604.369Z" transform="translate(-412.415 -514.402)" fill="url(#linear-gradient-3)"/>
      <path id="Path_15135" data-name="Path 15135" d="M577.887,601.965c0,44.044-26.807,77.325-67.365,87.046a108.352,108.352,0,0,1-25.286,2.919H412.53a49.316,49.316,0,0,1,49.153-45.387c.183,0,.361.012.543.013.01-.339.03-.676.034-1.017v.919H482.9a55.864,55.864,0,0,0,7.183-.454,70.091,70.091,0,0,0,34.793-126.632C557.229,532.937,577.887,563.435,577.887,601.965Z" transform="translate(-412.359 -511.993)" fill="url(#linear-gradient-4)"/>
      <g id="Group_9943" data-name="Group 9943" transform="translate(0.171 7.379)">
        <path id="Path_15136" data-name="Path 15136" d="M490.66,521.265c-.339-.426-.685-.845-1.032-1.263-.477-.209-.947-.428-1.43-.63C489.037,519.979,489.849,520.621,490.66,521.265Z" transform="translate(-375.847 -519.372)" fill="url(#linear-gradient-5)"/>
        <path id="Path_15137" data-name="Path 15137" d="M546.625,528.17c12.606,15.329,19.841,35.311,19.841,58.107,0,44.045-26.807,77.327-67.367,87.046a108.268,108.268,0,0,1-25.285,2.919h-59a49.111,49.111,0,0,0-2.285,11.423h72.706a108.352,108.352,0,0,0,25.286-2.919c40.559-9.721,67.365-43,67.365-87.046C577.887,568.711,566.192,544.274,546.625,528.17Z" transform="translate(-412.53 -515.107)" fill="url(#linear-gradient-6)" style="mix-blend-mode: overlay;isolation: isolate"/>
      </g>
    </g>
    <path id="Path_15138" data-name="Path 15138" d="M499.6,592.49H488.33a2.433,2.433,0,0,0-2.454,2.41v11.066a7.9,7.9,0,0,1-7.973,7.828h0a7.9,7.9,0,0,1-7.975-7.828V594.9a2.431,2.431,0,0,0-2.453-2.41H456.2a7.9,7.9,0,0,1-7.973-7.829h0a7.9,7.9,0,0,1,7.973-7.829h11.271a2.43,2.43,0,0,0,2.453-2.408V563.356a7.9,7.9,0,0,1,7.975-7.829h0a7.9,7.9,0,0,1,7.973,7.829v11.066a2.431,2.431,0,0,0,2.454,2.408H499.6a7.9,7.9,0,0,1,7.975,7.829h0A7.9,7.9,0,0,1,499.6,592.49Z" transform="translate(17.363 19.937)" fill="url(#linear-gradient-7)"/>
  </g>
</svg>
