<svg xmlns="http://www.w3.org/2000/svg" width="390" height="321.658" viewBox="0 0 390 321.658">
  <g id="Group_9938" data-name="Group 9938" transform="translate(-2612.841 -2384.529)">
    <path id="Path_12290" data-name="Path 12290" d="M2660.243,2599.278l-18.358,41.806,40.08-5.792Z" transform="translate(-9.344 -48.38)" fill="#e8802e"/>
    <path id="Path_12291" data-name="Path 12291" d="M2690.671,2630.282l-7.122-53.237-14.6,17.224Z" transform="translate(-18.05 -43.371)" fill="#e5782f"/>
    <path id="Path_12292" data-name="Path 12292" d="M2641.885,2651.557l21.1,22,18.985-27.794Z" transform="translate(-9.344 -58.853)" fill="#eb892e"/>
    <path id="Path_12293" data-name="Path 12293" d="M2697.6,2630.282l18.984,23.879-26.1-77.116Z" transform="translate(-24.978 -43.371)" fill="#e8812e"/>
    <path id="Path_12294" data-name="Path 12294" d="M2651,2597.66l-37.851-5.564.208,91.307Z" transform="translate(-0.098 -46.762)" fill="#e67b2f"/>
    <path id="Path_12295" data-name="Path 12295" d="M2641.885,2653.242l16.347,44.7,4.748-22.7Z" transform="translate(-9.344 -60.537)" fill="#ed8f2d"/>
    <path id="Path_12296" data-name="Path 12296" d="M2613.452,2697.178l35.635.769-16.35-44.7Z" transform="translate(-0.197 -60.537)" fill="#ee922d"/>
    <path id="Path_12297" data-name="Path 12297" d="M2708.46,2704.874l11.5-35.231-18.984-23.879Z" transform="translate(-28.355 -58.853)" fill="#ed8f2d"/>
    <path id="Path_12298" data-name="Path 12298" d="M2721.329,2582.625l-19.167-79.856-11.683,57.544Z" transform="translate(-24.978 -26.638)" fill="#e36d2e"/>
    <path id="Path_12299" data-name="Path 12299" d="M2683.552,2560.311l11.683-57.543-26.286,74.768Z" transform="translate(-18.051 -26.638)" fill="#e36d2e"/>
    <path id="Path_12300" data-name="Path 12300" d="M2651,2578.9l-4.929-70.071-32.922,64.506Z" transform="translate(-0.098 -28.003)" fill="#e36e2e"/>
    <path id="Path_12301" data-name="Path 12301" d="M2716.581,2654.161l4.748-54.8-30.85-22.312Z" transform="translate(-24.978 -43.371)" fill="#e77d2e"/>
    <path id="Path_12302" data-name="Path 12302" d="M2697.813,2769.717l1.643-56.761-26.469-31.317Z" transform="translate(-19.35 -66.935)" fill="#f19f2e"/>
    <path id="Path_12303" data-name="Path 12303" d="M2672.987,2673.557l26.469,31.316-7.485-59.111Z" transform="translate(-19.35 -58.852)" fill="#ed902d"/>
    <path id="Path_12305" data-name="Path 12305" d="M2692.9,2502.768l-31.215,4.7,4.929,70.071Z" transform="translate(-15.713 -26.638)" fill="#e2672e"/>
    <path id="Path_12308" data-name="Path 12308" d="M2687.485,2772.975l-16.751-91.335-4.748,22.7Z" transform="translate(-17.098 -66.935)" fill="#f2a02e"/>
    <path id="Path_12309" data-name="Path 12309" d="M2689.737,2772.975l8.076-3.258-24.825-88.077Z" transform="translate(-19.351 -66.935)" fill="#f4a92e"/>
    <path id="Path_12310" data-name="Path 12310" d="M2748.922,2575.7l-12.413-84.554-.547,88.86Z" transform="translate(-39.611 -24.019)" fill="#e36f2e"/>
    <path id="Path_12311" data-name="Path 12311" d="M2726.869,2580.006l.548-88.86-19.715,9Z" transform="translate(-30.519 -24.019)" fill="#e2672e"/>
    <path id="Path_12312" data-name="Path 12312" d="M2655.292,2395.646l-41.84,31.4,32.713,56.29Z" transform="translate(-0.197 -2.504)" fill="#df512f"/>
    <path id="Path_12313" data-name="Path 12313" d="M2645.969,2503.9l-33.128-16.971.207,81.478Z" transform="translate(0 -23.068)" fill="#e2652e"/>
    <path id="Path_12316" data-name="Path 12316" d="M2667.084,2779.451l20.4.126-21.5-68.631Z" transform="translate(-17.099 -73.537)" fill="#f4ac2f"/>
    <path id="Path_12317" data-name="Path 12317" d="M2750.687,2691.257l9.857-24.27-31.58,7.437Z" transform="translate(-37.359 -63.634)" fill="#ed8f2d"/>
    <path id="Path_12318" data-name="Path 12318" d="M2728.964,2660.65l31.58-7.437-26.834-47.366Z" transform="translate(-37.359 -49.86)" fill="#ea862e"/>
    <path id="Path_12319" data-name="Path 12319" d="M2745.232,2693.419l-21.723-16.832-11.5,35.231Z" transform="translate(-31.905 -65.797)" fill="#ef952d"/>
    <path id="Path_12320" data-name="Path 12320" d="M2613.223,2779.458l36.885-.008-1.095-68.5Z" transform="translate(-0.123 -73.537)" fill="#f4ac2f"/>
    <path id="Path_12321" data-name="Path 12321" d="M2762.8,2651.96l-13.874-51.673-12.96,4.306Z" transform="translate(-39.611 -48.607)" fill="#e77e2e"/>
    <path id="Path_12324" data-name="Path 12324" d="M2613.378,2709.955l-.155,69.28,35.79-68.512Z" transform="translate(-0.123 -73.314)" fill="#f2a32e"/>
    <path id="Path_12325" data-name="Path 12325" d="M2735.873,2759.251l-24.643-37.186-1.643,56.76Z" transform="translate(-31.125 -76.043)" fill="#f4a92f"/>
    <path id="Path_12326" data-name="Path 12326" d="M2736.653,2753.9l8.58-55.586-33.222,18.4Z" transform="translate(-31.905 -70.692)" fill="#f19f2e"/>
    <path id="Path_12327" data-name="Path 12327" d="M2779.712,2552.909l-9.127-55.2-15.516,79.466Z" transform="translate(-45.758 -25.499)" fill="#e36c2e"/>
    <path id="Path_12331" data-name="Path 12331" d="M2766.8,2781.418l-33.77-11.352-32.288,22.593Z" transform="translate(-28.279 -86.857)" fill="#f5b130"/>
    <path id="Path_12333" data-name="Path 12333" d="M2762.273,2482.46,2729.233,2430l5.112,47.366Z" transform="translate(-37.446 -10.245)" fill="#e0592f"/>
    <path id="Path_12334" data-name="Path 12334" d="M2727.417,2477.371,2722.306,2430l-14.6,56.37Z" transform="translate(-30.519 -10.245)" fill="#e0592f"/>
    <path id="Path_12335" data-name="Path 12335" d="M2646.165,2492.462l-32.713-56.29V2476.2Z" transform="translate(-0.197 -11.634)" fill="#e0582f"/>
    <path id="Path_12336" data-name="Path 12336" d="M2788.658,2616.729l-33.587-16.442,13.873,51.673Z" transform="translate(-45.758 -48.607)" fill="#e8802e"/>
    <path id="Path_12337" data-name="Path 12337" d="M2749.182,2575.7l15.516-79.465-27.929-5.089Z" transform="translate(-39.87 -24.019)" fill="#e2662e"/>
    <path id="Path_12338" data-name="Path 12338" d="M2670.81,2395.646l-9.128,87.686,31.215-4.7Z" transform="translate(-15.713 -2.504)" fill="#e0572f"/>
    <path id="Path_12341" data-name="Path 12341" d="M2711.83,2422.264l-36.691-26.619,22.087,82.989Z" transform="translate(-20.042 -2.504)" fill="#df522f"/>
    <path id="Path_12343" data-name="Path 12343" d="M2781.252,2694.779l-10.405-27.793-9.857,24.27Z" transform="translate(-47.663 -63.634)" fill="#ee922d"/>
    <path id="Path_12344" data-name="Path 12344" d="M2785.929,2684.534l9.309-63.024-19.714,35.231Z" transform="translate(-52.338 -53.389)" fill="#ec8a2e"/>
    <path id="Path_12347" data-name="Path 12347" d="M2788.658,2609.672l-8.944-40.711-24.643,24.271Z" transform="translate(-45.758 -41.55)" fill="#e4762f"/>
    <path id="Path_12350" data-name="Path 12350" d="M2786.181,2765.254l-4.928-63.416-20.262-3.52Z" transform="translate(-47.663 -70.693)" fill="#f19e2e"/>
    <path id="Path_12351" data-name="Path 12351" d="M2800.347,2609.672l23.183-29.749-32.127-10.96Z" transform="translate(-57.447 -41.551)" fill="#e4752f"/>
    <path id="Path_12352" data-name="Path 12352" d="M2785.978,2469.057l3.833-20.356-11.865,37.971Z" transform="translate(-53.118 -14.457)" fill="#e05a2f"/>
    <path id="Path_12353" data-name="Path 12353" d="M2762.274,2482.459l11.865-37.971L2729.233,2430Z" transform="translate(-37.446 -10.244)" fill="#df562f"/>
    <path id="Path_12354" data-name="Path 12354" d="M2711.83,2420.444l33.04-32.882-69.731,6.263Z" transform="translate(-20.042 -0.683)" fill="#de4b30"/>
    <path id="Path_12357" data-name="Path 12357" d="M2787.072,2547.786l-1.1-72.81-8.032,17.615Z" transform="translate(-53.117 -20.377)" fill="#e1632e"/>
    <path id="Path_12362" data-name="Path 12362" d="M2748.341,2753.9l33.77,11.352-25.19-66.935Z" transform="translate(-43.593 -70.693)" fill="#f3a52e"/>
    <path id="Path_12374" data-name="Path 12374" d="M2833.621,2440.408l-55.675-52.846,8.031,67.721Z" transform="translate(-53.118 -0.683)" fill="#df532f"/>
    <path id="Path_12375" data-name="Path 12375" d="M2785.977,2455.282l-8.032-67.722,11.865,47.366Z" transform="translate(-53.117 -0.683)" fill="#df522f"/>
    <path id="Path_12376" data-name="Path 12376" d="M2774.138,2434.927l-11.865-47.366-33.041,32.879Z" transform="translate(-37.446 -0.683)" fill="#de4f2f"/>
    <path id="Path_12377" data-name="Path 12377" d="M2820.984,2756.49l2.374-46.583-32.49-7.05Z" transform="translate(-57.275 -71.715)" fill="#f19f2e"/>
    <path id="Path_12378" data-name="Path 12378" d="M2790.868,2684.531l32.49,7.05-23.183-70.071Z" transform="translate(-57.275 -53.389)" fill="#ed8f2d"/>
    <path id="Path_12379" data-name="Path 12379" d="M2790.881,2547.788l37.421-66.935-38.517-5.872Z" transform="translate(-56.927 -20.378)" fill="#e1622e"/>
    <path id="Path_12380" data-name="Path 12380" d="M2827.772,2691.58l14.056-50.106-37.238-19.964Z" transform="translate(-61.69 -53.389)" fill="#eb8a2e"/>
    <path id="Path_12381" data-name="Path 12381" d="M2841.827,2632.823l-14.056-49.715-23.183,29.749Z" transform="translate(-61.689 -44.737)" fill="#e77d2e"/>
    <path id="Path_12384" data-name="Path 12384" d="M2823.532,2560.456l5.29-77.9-37.421,66.936Z" transform="translate(-57.446 -22.084)" fill="#e36a2e"/>
    <path id="Path_12385" data-name="Path 12385" d="M2667.6,2793.225l113.724-21.138-74.141,21.264Z" transform="translate(-17.618 -87.312)" fill="#f5b330"/>
    <path id="Path_12386" data-name="Path 12386" d="M2795.793,2766.278l25.19-9.786-30.12-53.629Z" transform="translate(-57.273 -71.716)" fill="#f3a62e"/>
    <path id="Path_12387" data-name="Path 12387" d="M2838.767,2697.386l13.509-18.4.547-31.708Z" transform="translate(-72.685 -59.194)" fill="#ed912d"/>
    <path id="Path_12392" data-name="Path 12392" d="M2828.3,2476.522l9.127-20.747-47.644,14.875Z" transform="translate(-56.927 -16.051)" fill="#e05a2f"/>
    <path id="Path_12393" data-name="Path 12393" d="M2865.556,2455.776H2855.7l-9.127,20.747Z" transform="translate(-75.196 -16.051)" fill="#e0592f"/>
    <path id="Path_12394" data-name="Path 12394" d="M2835.269,2753.19l15.881-64.981-13.507,18.4Z" transform="translate(-71.56 -68.415)" fill="#f19d2e"/>
    <path id="Path_12395" data-name="Path 12395" d="M2852.824,2632.822l26.286-29.362-40.342-20.355Z" transform="translate(-72.685 -44.736)" fill="#e67c2e"/>
    <path id="Path_12396" data-name="Path 12396" d="M2838.769,2560.456l24.643-49.323-19.349-28.576Z" transform="translate(-72.686 -22.084)" fill="#e2672e"/>
    <path id="Path_12401" data-name="Path 12401" d="M2884.682,2635.218l1.1-25.838-26.286,29.362Z" transform="translate(-79.352 -50.656)" fill="#e9822e"/>
    <path id="Path_12403" data-name="Path 12403" d="M2881.5,2662.305l2.921-19.573-25.739,35.231Z" transform="translate(-79.092 -58.17)" fill="#ec8c2d"/>
    <path id="Path_12404" data-name="Path 12404" d="M2858.683,2677.964l25.739-35.231-25.191,3.524Z" transform="translate(-79.092 -58.17)" fill="#eb8a2e"/>
    <path id="Path_12408" data-name="Path 12408" d="M2905.219,2484.577l-30.12,27.01,41.073,50.106Z" transform="translate(-84.374 -22.539)" fill="#e2682e"/>
    <path id="Path_12409" data-name="Path 12409" d="M2879.11,2589.121l-15.7-69.679-24.643,49.324Z" transform="translate(-72.685 -30.394)" fill="#e3712f"/>
    <path id="Path_12410" data-name="Path 12410" d="M2865.922,2505.1l-.365-49.323-18.984,20.747Z" transform="translate(-75.196 -16.051)" fill="#e15d2e"/>
    <path id="Path_12411" data-name="Path 12411" d="M2833.621,2440.407h9.857l-65.532-52.846Z" transform="translate(-53.118 -0.683)" fill="#df522f"/>
    <path id="Path_12416" data-name="Path 12416" d="M2874.524,2769.9,2881.5,2668l-22.818,15.658Z" transform="translate(-79.092 -63.862)" fill="#f19d2e"/>
    <path id="Path_12417" data-name="Path 12417" d="M2896.63,2635.219l16.064-14.092-14.968-11.744Z" transform="translate(-91.301 -50.657)" fill="#e8802e"/>
    <path id="Path_12418" data-name="Path 12418" d="M2667.6,2793.225l145.447.125-31.723-21.267Z" transform="translate(-17.618 -87.311)" fill="#f5b330"/>
    <path id="Path_12419" data-name="Path 12419" d="M2835.269,2753.188l31.723,21.267-15.841-86.246Z" transform="translate(-71.56 -68.415)" fill="#f3a82e"/>
    <path id="Path_12422" data-name="Path 12422" d="M2916.172,2569.548l-41.073-50.106,15.7,69.679Z" transform="translate(-84.374 -30.394)" fill="#e3712f"/>
    <path id="Path_12423" data-name="Path 12423" d="M2874.927,2505.1l30.12-27.01-30.485-22.312Z" transform="translate(-84.201 -16.051)" fill="#e15e2e"/>
    <path id="Path_12426" data-name="Path 12426" d="M2939.968,2692.656l-28.659-68.113-18.984,33.665Z" transform="translate(-89.915 -54.072)" fill="#ec8d2d"/>
    <path id="Path_12427" data-name="Path 12427" d="M2892.324,2658.207l18.984-33.665-16.064,14.092Z" transform="translate(-89.915 -54.071)" fill="#ea852e"/>
    <path id="Path_12428" data-name="Path 12428" d="M2913.213,2615.435l10.405-31.316-25.374,19.572Z" transform="translate(-91.82 -44.965)" fill="#e67a2f"/>
    <path id="Path_12432" data-name="Path 12432" d="M2882.038,2769.9h23.641L2889.015,2668Z" transform="translate(-86.606 -63.861)" fill="#f4aa2f"/>
    <path id="Path_12433" data-name="Path 12433" d="M2947.336,2648.911l1.46-98.646-13.143,26.227Z" transform="translate(-103.855 -37.338)" fill="#e57a2f"/>
    <path id="Path_12437" data-name="Path 12437" d="M2905.047,2478.088l-3.1-19.964-27.381-2.349Z" transform="translate(-84.201 -16.051)" fill="#e05a2f"/>
    <path id="Path_12439" data-name="Path 12439" d="M2937.931,2500.692l-23-41.886,3.1,19.965Z" transform="translate(-97.188 -16.734)" fill="#e15e2e"/>
    <path id="Path_12444" data-name="Path 12444" d="M2942.4,2656.538l-11.682-72.42-10.405,31.316Z" transform="translate(-98.92 -44.965)" fill="#e8812e"/>
    <path id="Path_12445" data-name="Path 12445" d="M2930.458,2561.692l8.944-55.2-19.9-21.924Z" transform="translate(-98.66 -22.538)" fill="#e2672e"/>
    <path id="Path_12446" data-name="Path 12446" d="M2948.8,2541.841l-4.2-28.968-8.945,55.2Z" transform="translate(-103.855 -28.914)" fill="#e36c2e"/>
    <path id="Path_12447" data-name="Path 12447" d="M2908.988,2769.9l30.98-67.456L2892.324,2668Z" transform="translate(-89.915 -63.861)" fill="#f2a02e"/>
    <path id="Path_12448" data-name="Path 12448" d="M2948.972,2692.656l-6.572-27.011-22.087-41.1Z" transform="translate(-98.92 -54.072)" fill="#ed8e2d"/>
    <path id="Path_12449" data-name="Path 12449" d="M2984.128,2482.531l-38.517-34.84,2.191,50.5Z" transform="translate(-107.059 -14.229)" fill="#e15e2e"/>
    <path id="Path_12452" data-name="Path 12452" d="M2916.892,2779.918l26.543-.118,4.437-67.337Z" transform="translate(-97.819 -73.879)" fill="#f5ae2f"/>
    <path id="Path_12458" data-name="Path 12458" d="M2985.167,2492.665l-36.326,15.658,4.2,28.965Z" transform="translate(-108.098 -24.362)" fill="#e2662e"/>
    <path id="Path_12459" data-name="Path 12459" d="M2937.931,2498.188l-2.19-50.5-20.81,8.612Z" transform="translate(-97.189 -14.229)" fill="#e05c2e"/>
    <path id="Path_12460" data-name="Path 12460" d="M2901.943,2456.3l20.81-8.613-48.191,6.263Z" transform="translate(-84.201 -14.229)" fill="#e0572f"/>
    <path id="Path_12466" data-name="Path 12466" d="M2952.877,2648.911l19.9-35.622-18.437-63.024Z" transform="translate(-109.397 -37.338)" fill="#e77e2e"/>
    <path id="Path_12467" data-name="Path 12467" d="M2986.466,2711.474l-13.691-79.857-19.9,35.621Z" transform="translate(-109.397 -55.666)" fill="#ee912d"/>
    <path id="Path_12468" data-name="Path 12468" d="M2986.466,2721.832l-33.588-44.236,6.572,27.01Z" transform="translate(-109.397 -66.024)" fill="#f0992d"/>
    <path id="Path_12471" data-name="Path 12471" d="M2956.025,2779.8l11.009-29.758-6.572-37.58Z" transform="translate(-110.409 -73.879)" fill="#f3a82e"/>
    <path id="Path_12473" data-name="Path 12473" d="M2974.927,2574.534l-19.9-24.27,18.437,63.024Z" transform="translate(-110.089 -37.338)" fill="#e4752f"/>
    <path id="Path_12474" data-name="Path 12474" d="M2974.928,2561.558l12.23-68.9-32.127,44.623Z" transform="translate(-110.09 -24.361)" fill="#e36b2e"/>
    <path id="Path_12475" data-name="Path 12475" d="M3003.9,2540.664l-19.534,31.708,45.091,76.724Z" transform="translate(-119.526 -35.175)" fill="#e5792f"/>
    <path id="Path_12480" data-name="Path 12480" d="M2969.138,2750.042l20.445-20.355-27.017-17.224Z" transform="translate(-112.514 -73.879)" fill="#f2a22e"/>
    <path id="Path_12485" data-name="Path 12485" d="M3003.9,2529.85l-7.3-37.186-12.233,68.894Z" transform="translate(-119.526 -24.361)" fill="#e36a2e"/>
    <path id="Path_12486" data-name="Path 12486" d="M3009.7,2525.524l.73-52.061-8.032,14.874Z" transform="translate(-125.328 -20.036)" fill="#e1632e"/>
    <path id="Path_12487" data-name="Path 12487" d="M2984.127,2482.531l8.032-14.875-46.548-19.964Z" transform="translate(-107.059 -14.23)" fill="#e05c2e"/>
    <path id="Path_12488" data-name="Path 12488" d="M3028.761,2658.317l-45.088-76.725-1.46,38.754Z" transform="translate(-118.835 -44.396)" fill="#e9822e"/>
    <path id="Path_12491" data-name="Path 12491" d="M3033.384,2476.521,3010.2,2384.53l2.738,68.9Z" transform="translate(-127.839 0)" fill="#e0592f"/>
    <path id="Path_12492" data-name="Path 12492" d="M2992.159,2453.425l-2.738-68.9-43.81,48.931Z" transform="translate(-107.059 0)" fill="#df562f"/>
    <path id="Path_12493" data-name="Path 12493" d="M2922.753,2433.46l43.81-48.931-92,55.195Z" transform="translate(-84.201 0)" fill="#df542f"/>
    <path id="Path_12495" data-name="Path 12495" d="M3020.246,2784.379l.4-51.2-18.254,1.175Z" transform="translate(-125.328 -78.546)" fill="#f4ab2f"/>
    <path id="Path_12496" data-name="Path 12496" d="M2995.9,2711.474l32.858-41.886-46.549-37.971Z" transform="translate(-118.835 -55.666)" fill="#ee922d"/>
    <path id="Path_12497" data-name="Path 12497" d="M3013.161,2525.524l21.175-28.967-20.445-23.093Z" transform="translate(-128.791 -20.036)" fill="#e2642e"/>
    <path id="Path_12501" data-name="Path 12501" d="M3020.652,2721.341l14.6-40.711-32.858,41.885Z" transform="translate(-125.328 -66.708)" fill="#f19c2d"/>
    <path id="Path_12504" data-name="Path 12504" d="M3061.9,2541.244l-27.564-37.971-21.175,28.967Z" transform="translate(-128.792 -26.751)" fill="#e26a2e"/>
    <path id="Path_12507" data-name="Path 12507" d="M3029.31,2721.341l13.325-39.536,1.278-1.175Z" transform="translate(-133.987 -66.708)" fill="#ef972d"/>
    <path id="Path_12508" data-name="Path 12508" d="M2972.255,2755.052l38.294,29.669L2992.7,2734.7Z" transform="translate(-115.631 -78.888)" fill="#f4ad2f"/>
    <path id="Path_12509" data-name="Path 12509" d="M2956.025,2790.728l49.3-.088-38.294-29.669Z" transform="translate(-110.409 -84.807)" fill="#f6b330"/>
    <path id="Path_12513" data-name="Path 12513" d="M3053.77,2763.959l-11.135-81.814-13.326,39.536Z" transform="translate(-133.986 -67.049)" fill="#f2a22e"/>
    <path id="Path_12514" data-name="Path 12514" d="M3038.717,2649.1l9.857-22.7-35.414-85.729Z" transform="translate(-128.791 -35.175)" fill="#e8802e"/>
    <path id="Path_12515" data-name="Path 12515" d="M3048.955,2675.2l11.135-23.879-9.857,22.7Z" transform="translate(-140.307 -60.105)" fill="#ed8f2d"/>
    <path id="Path_12516" data-name="Path 12516" d="M3048.576,2626.393l13.325-76.725-48.739-9Z" transform="translate(-128.792 -35.175)" fill="#e4742f"/>
    <path id="Path_12517" data-name="Path 12517" d="M3033.385,2476.521l20.262-30.533-43.445-61.459Z" transform="translate(-127.839 0)" fill="#e0592f"/>
    <path id="Path_12522" data-name="Path 12522" d="M3048.955,2675.2l44.176,23.879-33.041-47.757Z" transform="translate(-140.307 -60.105)" fill="#ee922d"/>
    <path id="Path_12523" data-name="Path 12523" d="M3087.391,2562.463l8.762-6.264-11.135-3.915Z" transform="translate(-151.909 -37.793)" fill="#e3702e"/>
    <path id="Path_12524" data-name="Path 12524" d="M3028.713,2784.379l24.865-8.923-24.461-42.277Z" transform="translate(-133.795 -78.546)" fill="#f5b030"/>
    <path id="Path_12536" data-name="Path 12536" d="M3081.071,2562.463l-2.374-10.178-13.325,76.726Z" transform="translate(-145.589 -37.793)" fill="#e4772f"/>
    <path id="Path_12537" data-name="Path 12537" d="M3071.944,2541.244l11.135,3.915-38.7-41.885Z" transform="translate(-138.835 -26.751)" fill="#e36b2e"/>
    <path id="Path_12538" data-name="Path 12538" d="M3083.079,2536.279l-18.437-72.419-20.262,30.534Z" transform="translate(-138.835 -17.872)" fill="#e2652e"/>
    <path id="Path_12539" data-name="Path 12539" d="M3109.366,2624.533l-28.294-59.111-15.7,66.548Z" transform="translate(-145.589 -40.753)" fill="#e87f2e"/>
    <path id="Path_12540" data-name="Path 12540" d="M3092.69,2536.28l15.7-37.187-34.136-35.231Z" transform="translate(-148.446 -17.873)" fill="#e2662e"/>
    <path id="Path_12543" data-name="Path 12543" d="M3028.713,2796.672l49.144-3.836-24.278-5.089Z" transform="translate(-133.795 -90.84)" fill="#f6b731"/>
    <path id="Path_12544" data-name="Path 12544" d="M3060.09,2763.959l33.041-57.935-44.176-23.879Z" transform="translate(-140.307 -67.049)" fill="#f2a02e"/>
    <path id="Path_12547" data-name="Path 12547" d="M3089.65,2775.992l8.762-63.025-33.04,57.936Z" transform="translate(-145.589 -73.993)" fill="#f4ac2f"/>
    <path id="Path_12548" data-name="Path 12548" d="M3112.978,2509.336l-15.7,37.186-8.762,6.265Z" transform="translate(-153.035 -28.117)" fill="#e36d2e"/>
    <path id="Path_12549" data-name="Path 12549" d="M3108.389,2488.162l-8.944-72.81-25.191,37.579Z" transform="translate(-148.446 -6.944)" fill="#e05c2e"/>
    <path id="Path_12550" data-name="Path 12550" d="M3053.646,2445.988l25.191-37.58-68.636-23.879Z" transform="translate(-127.839 0)" fill="#df552f"/>
    <path id="Path_12551" data-name="Path 12551" d="M3120.28,2547.7l-7.3-38.362-24.461,43.451Z" transform="translate(-153.035 -28.117)" fill="#e36d2e"/>
    <path id="Path_12552" data-name="Path 12552" d="M3133.7,2558.854l-3.468,64.2,14.968,14.875Z" transform="translate(-166.455 -39.273)" fill="#e8802e"/>
    <path id="Path_12553" data-name="Path 12553" d="M3098.413,2696.917l10.953-55.2-43.993,7.437Z" transform="translate(-145.589 -57.942)" fill="#ed8e2d"/>
    <path id="Path_12565" data-name="Path 12565" d="M3116.812,2623.053l3.468-64.2-31.762,5.089Z" transform="translate(-153.035 -39.273)" fill="#e4772f"/>
    <path id="Path_12566" data-name="Path 12566" d="M3120.337,2488.162l9.492-72.028-18.437-.782Z" transform="translate(-160.394 -6.944)" fill="#e05a2f"/>
    <path id="Path_12567" data-name="Path 12567" d="M3131.608,2717.664l-6.572-75.942-10.953,55.2Z" transform="translate(-161.26 -57.942)" fill="#ef972d"/>
    <path id="Path_12568" data-name="Path 12568" d="M3101.166,2775.993l26.286-42.277-17.524-20.747Z" transform="translate(-157.104 -73.993)" fill="#f3a72e"/>
    <path id="Path_12573" data-name="Path 12573" d="M3136.8,2717.664l8.4-61.066-14.968-14.875Z" transform="translate(-166.455 -57.942)" fill="#ee922d"/>
    <path id="Path_12574" data-name="Path 12574" d="M3101.166,2782.026l42.152,4.1-15.866-46.376Z" transform="translate(-157.104 -80.027)" fill="#f5b030"/>
    <path id="Path_12575" data-name="Path 12575" d="M3139.925,2721.99l32.49,9-24.1-70.071Z" transform="translate(-169.574 -62.268)" fill="#f19d2e"/>
    <path id="Path_12576" data-name="Path 12576" d="M3029.287,2798.153l90.906.266-42.152-4.1Z" transform="translate(-133.979 -92.32)" fill="#f6b932"/>
    <path id="Path_12577" data-name="Path 12577" d="M3166.2,2498.725l-24.825,23.879-6.024,22.7Z" transform="translate(-168.101 -25.726)" fill="#e36a2e"/>
    <path id="Path_12578" data-name="Path 12578" d="M3131.883,2547.7l6.024-22.7-13.325-15.658Z" transform="translate(-164.637 -28.117)" fill="#e36b2e"/>
    <path id="Path_12581" data-name="Path 12581" d="M3137.906,2504.049l-3.834-87.686-9.492,72.027Z" transform="translate(-164.637 -7.172)" fill="#e1612e"/>
    <path id="Path_12584" data-name="Path 12584" d="M3146.845,2637.928l24.1-28.576-35.6-50.5Z" transform="translate(-168.1 -39.273)" fill="#e77f2e"/>
    <path id="Path_12585" data-name="Path 12585" d="M3167.234,2480.17l-.182-38.363-28.477-25.445Z" transform="translate(-169.139 -7.172)" fill="#e05c2e"/>
    <path id="Path_12586" data-name="Path 12586" d="M3176.4,2722.683v-98.646l-24.1,28.576Z" transform="translate(-173.555 -53.958)" fill="#ee922d"/>
    <path id="Path_12589" data-name="Path 12589" d="M3167.234,2480.17l-28.659-63.807,3.834,87.686Z" transform="translate(-169.139 -7.172)" fill="#e1612e"/>
    <path id="Path_12590" data-name="Path 12590" d="M3129.83,2416.135l28.477,25.445-46.913-26.227Z" transform="translate(-160.395 -6.944)" fill="#e0582f"/>
    <path id="Path_12593" data-name="Path 12593" d="M3169.481,2563.315l-3.286-64.59-30.849,46.583Z" transform="translate(-168.101 -25.726)" fill="#e36e2e"/>
    <path id="Path_12598" data-name="Path 12598" d="M3155.788,2786.125l16.626-37.373-32.49-9Z" transform="translate(-169.574 -80.026)" fill="#f4ac2f"/>
    <path id="Path_12599" data-name="Path 12599" d="M3170.941,2609.352l-1.46-32.491-34.136-18.007Z" transform="translate(-168.1 -39.273)" fill="#e5772f"/>
    <path id="Path_12601" data-name="Path 12601" d="M3187.132,2713.235l-1.46-131.137,1.46,32.491Z" transform="translate(-184.291 -44.51)" fill="#eb8a2e"/>
    <path id="Path_12602" data-name="Path 12602" d="M3163.312,2788.743l15.4.089,1.229-37.462Z" transform="translate(-177.098 -82.645)" fill="#f5b330"/>
  </g>
</svg>
